<?xml version="1.0" encoding="UTF-8" standalone="no"?>
<svg
   xmlns:dc="http://purl.org/dc/elements/1.1/"
   xmlns:cc="http://creativecommons.org/ns#"
   xmlns:rdf="http://www.w3.org/1999/02/22-rdf-syntax-ns#"
   xmlns:svg="http://www.w3.org/2000/svg"
   xmlns="http://www.w3.org/2000/svg"
   version="1.1"
   id="svg4244"
   viewBox="0 0 32 32.000001"
   height="32"
   width="32">
  <defs
     id="defs4246" />
  <metadata
     id="metadata4249">
    <rdf:RDF>
      <cc:Work
         rdf:about="">
        <dc:format>image/svg+xml</dc:format>
        <dc:type
           rdf:resource="http://purl.org/dc/dcmitype/StillImage" />
        <dc:title />
      </cc:Work>
    </rdf:RDF>
  </metadata>
  <g
     transform="translate(0,-1020.3622)"
     id="layer1">
    <g
       transform="translate(-4.2590071,-3.0333347)"
       id="g4783">
      <g
         id="g6849">
        <path
           style="fill:#b48966;fill-opacity:1;stroke:none;stroke-width:3;stroke-linecap:round;stroke-linejoin:round;stroke-opacity:1"
           d="m 18.259007,1045.3955 4,0 0,10 -4,0 z"
           id="rect4982" />
        <path
           style="fill:#00c379;fill-opacity:1;stroke:none;stroke-width:3;stroke-linecap:round;stroke-linejoin:round;stroke-opacity:1"
           d="m 20.235569,1025.3955 a 0.5,0.5 0 0 0 -0.410156,0.25 l -4.5,7 a 0.5,0.5 0 0 0 0,0.5 0.5,0.5 0 0 0 0.433594,0.25 l 4.5,0 4.5,0 a 0.5,0.5 0 0 0 0.433594,-0.25 0.5,0.5 0 0 0 0,-0.5 l -4.5,-7 a 0.5,0.5 0 0 0 -0.433594,-0.25 0.5,0.5 0 0 0 -0.02344,0 z"
           id="rect4860" />
        <path
           style="fill:#00c379;fill-opacity:1;stroke:none;stroke-width:3;stroke-linecap:round;stroke-linejoin:round;stroke-opacity:1"
           d="m 20.225804,1029.1963 a 0.69999995,0.69999995 0 0 0 -0.572266,0.3496 l -6.300781,9.7988 a 0.69999995,0.69999995 0 0 0 0,0.7012 0.69999995,0.69999995 0 0 0 0.605469,0.3496 l 6.300781,0 6.300781,0 a 0.69999995,0.69999995 0 0 0 0.605469,-0.3496 0.69999995,0.69999995 0 0 0 0,-0.7012 l -6.300781,-9.7988 a 0.69999995,0.69999995 0 0 0 -0.605469,-0.3496 0.69999995,0.69999995 0 0 0 -0.0332,0 z"
           id="path4942" />
        <path
           style="fill:#00c379;fill-opacity:1;stroke:none;stroke-width:3;stroke-linecap:round;stroke-linejoin:round;stroke-opacity:1"
           d="m 20.259007,1032.9951 a 0.89999995,0.89999995 0 0 0 -0.779297,0.4512 l -8.099609,12.5996 a 0.89999995,0.89999995 0 0 0 0,0.9004 0.89999995,0.89999995 0 0 0 0.779297,0.4492 l 8.099609,0 8.099609,0 a 0.89999995,0.89999995 0 0 0 0.779297,-0.4492 0.89999995,0.89999995 0 0 0 0,-0.9004 l -8.099609,-12.5996 a 0.89999995,0.89999995 0 0 0 -0.779297,-0.4512 z"
           id="path4954" />
        <path
           transform="matrix(0.36841044,-0.0383526,0.0383526,0.36841044,-25.298422,637.51934)"
           style="fill:#e6001f;fill-opacity:1;stroke:none;stroke-width:1;stroke-linecap:round;stroke-linejoin:round;stroke-opacity:1"
           d="m 16.236068,1057.2352 c -0.161935,0.087 -2.341628,-1.7195 -2.524541,-1.7387 -0.176263,-0.018 -2.575831,1.3116 -2.70397,1.1891 -0.132974,-0.127 0.911705,-2.7583 0.873466,-2.9382 -0.03685,-0.1734 -2.0433749,-2.0445 -1.9665225,-2.2042 0.079752,-0.1657 2.9050925,0.015 3.0643725,-0.077 0.153489,-0.089 1.312956,-2.5751 1.488593,-2.5514 0.182263,0.025 0.88374,2.7675 1.02042,2.8906 0.131711,0.1186 2.854826,0.4529 2.886523,0.6273 0.03289,0.1809 -2.358911,1.6956 -2.433718,1.8637 -0.07209,0.1619 0.451424,2.855 0.295377,2.9391 z"
           id="path5048" />
        <path
           style="fill:#e6001f;fill-opacity:1;stroke:none;stroke-width:3;stroke-linecap:round;stroke-linejoin:round;stroke-opacity:1"
           d="m 19.259007,1028.8955 a 0.5,0.5 0 0 1 -0.5,0.5 0.5,0.5 0 0 1 -0.5,-0.5 0.5,0.5 0 0 1 0.5,-0.5 0.5,0.5 0 0 1 0.5,0.5 z"
           id="path5050" />
        <path
           style="fill:#ff9a00;fill-opacity:1;stroke:none;stroke-width:3;stroke-linecap:round;stroke-linejoin:round;stroke-opacity:1"
           d="m 23.259007,1031.8955 a 0.5,0.5 0 0 1 -0.5,0.5 0.5,0.5 0 0 1 -0.5,-0.5 0.5,0.5 0 0 1 0.5,-0.5 0.5,0.5 0 0 1 0.5,0.5 z"
           id="circle5052" />
        <path
           style="fill:#e6001f;fill-opacity:1;stroke:none;stroke-width:3;stroke-linecap:round;stroke-linejoin:round;stroke-opacity:1"
           d="m 17.759007,1035.8955 a 0.5,0.5 0 0 1 -0.5,0.5 0.5,0.5 0 0 1 -0.5,-0.5 0.5,0.5 0 0 1 0.5,-0.5 0.5,0.5 0 0 1 0.5,0.5 z"
           id="circle5054" />
        <path
           style="fill:#ff9a00;fill-opacity:1;stroke:none;stroke-width:3;stroke-linecap:round;stroke-linejoin:round;stroke-opacity:1"
           d="m 25.259007,1038.8955 a 0.5,0.5 0 0 1 -0.5,0.5 0.5,0.5 0 0 1 -0.5,-0.5 0.5,0.5 0 0 1 0.5,-0.5 0.5,0.5 0 0 1 0.5,0.5 z"
           id="circle5056" />
        <path
           style="fill:#006ef4;fill-opacity:1;stroke:none;stroke-width:3;stroke-linecap:round;stroke-linejoin:round;stroke-opacity:1"
           d="m 21.259007,1037.3955 a 0.5,0.5 0 0 1 -0.5,0.5 0.5,0.5 0 0 1 -0.5,-0.5 0.5,0.5 0 0 1 0.5,-0.5 0.5,0.5 0 0 1 0.5,0.5 z"
           id="circle5058" />
        <path
           style="fill:#00a654;fill-opacity:1;stroke:none;stroke-width:3;stroke-linecap:round;stroke-linejoin:round;stroke-opacity:1"
           d="m 16.259007,1038.8955 a 0.5,0.5 0 0 1 -0.5,0.5 0.5,0.5 0 0 1 -0.5,-0.5 0.5,0.5 0 0 1 0.5,-0.5 0.5,0.5 0 0 1 0.5,0.5 z"
           id="circle5060" />
        <path
           style="fill:#006ef4;fill-opacity:1;stroke:none;stroke-width:3;stroke-linecap:round;stroke-linejoin:round;stroke-opacity:1"
           d="m 24.259007,1042.8955 a 0.5,0.5 0 0 1 -0.5,0.5 0.5,0.5 0 0 1 -0.5,-0.5 0.5,0.5 0 0 1 0.5,-0.5 0.5,0.5 0 0 1 0.5,0.5 z"
           id="circle5062" />
        <path
           style="fill:#e6001f;fill-opacity:1;stroke:none;stroke-width:3;stroke-linecap:round;stroke-linejoin:round;stroke-opacity:1"
           d="m 16.259007,1042.8955 a 0.5,0.5 0 0 1 -0.5,0.5 0.5,0.5 0 0 1 -0.5,-0.5 0.5,0.5 0 0 1 0.5,-0.5 0.5,0.5 0 0 1 0.5,0.5 z"
           id="circle5064" />
        <path
           style="fill:#00a654;fill-opacity:1;stroke:none;stroke-width:3;stroke-linecap:round;stroke-linejoin:round;stroke-opacity:1"
           d="m 21.259007,1044.8955 a 0.5,0.5 0 0 1 -0.5,0.5 0.5,0.5 0 0 1 -0.5,-0.5 0.5,0.5 0 0 1 0.5,-0.5 0.5,0.5 0 0 1 0.5,0.5 z"
           id="circle5066" />
        <path
           style="fill:#ff9a00;fill-opacity:1;stroke:none;stroke-width:3;stroke-linecap:round;stroke-linejoin:round;stroke-opacity:1"
           d="m 27.259007,1045.8955 a 0.5,0.5 0 0 1 -0.5,0.5 0.5,0.5 0 0 1 -0.5,-0.5 0.5,0.5 0 0 1 0.5,-0.5 0.5,0.5 0 0 1 0.5,0.5 z"
           id="circle5068" />
        <path
           style="fill:#00a654;fill-opacity:1;stroke:none;stroke-width:3;stroke-linecap:round;stroke-linejoin:round;stroke-opacity:1"
           d="m 17.178929,1033.3955 -0.644531,1 7.449218,0 -0.644531,-1 -6.160156,0 z"
           id="path5140" />
        <path
           style="fill:#00a654;fill-opacity:1;stroke:none;stroke-width:3;stroke-linecap:round;stroke-linejoin:round;stroke-opacity:1"
           d="m 15.012913,1040.3955 -0.642578,1 11.777344,0 -0.642578,-1 -10.492188,0 z"
           id="path5142" />
        <path
           style="fill:#006ef4;fill-opacity:1;stroke:none;stroke-width:3;stroke-linecap:round;stroke-linejoin:round;stroke-opacity:1"
           d="m 14.259007,1045.8955 a 0.5,0.5 0 0 1 -0.5,0.5 0.5,0.5 0 0 1 -0.5,-0.5 0.5,0.5 0 0 1 0.5,-0.5 0.5,0.5 0 0 1 0.5,0.5 z"
           id="circle5150" />
        <path
           style="fill:#8a6845;fill-opacity:1;stroke:none;stroke-width:3;stroke-linecap:round;stroke-linejoin:round;stroke-opacity:1"
           d="m 18.259007,1047.3955 4,0 0,1 -4,0 z"
           id="rect5152" />
      </g>
    </g>
  </g>
</svg>
