<?xml version="1.0" ?><svg viewBox="0 0 60 60" xmlns="http://www.w3.org/2000/svg"><title/><g id="text"><text font-family="MyriadPro-Regular, Myriad Pro" font-size="9" transform="translate(5.32715 -49.60986)"><tspan letter-spacing="0.01297em" x="14.06689" y="0"/><tspan x="18.21533" y="0"/><tspan letter-spacing="-0.00998em" x="21.19434" y="0"/><tspan x="24.04736" y="0"/></text></g><g id="colour"><path d="M47.79,42.4c-1.53,1.61-3.29,2.47-4.59,2.25-1.61-.28-2.58-1.83-3.59-3.47-.95-1.55-1.94-3.15-3.58-3.68-1.55-.52-3.26,1.04-3.76,2.36-.6,1.58.5,3.03,1.65,4.55,1.21,1.61,2.58,3.43,2.46,5.84a5.12593,5.12593,0,0,1-.62,2.22,2.86306,2.86306,0,0,0-.41,2.02c.36,1.65,2.67,3.33,5.99005,4.51H9a12.7515,12.7515,0,0,0,4.16-3.78c0-.01,0-.01.01-.01q.195-.285.36-.56995A14.3923,14.3923,0,0,0,14.22,53.32a3.61731,3.61731,0,0,1,.75-1.26A1.70655,1.70655,0,0,1,15.4,51.77a4.02949,4.02949,0,0,1,2.84.03,4.61557,4.61557,0,0,0,3.37-.04c1.33-.68005,1.87-2.14,2.34-4.45q.12-.6.21-1.17c.04-.21.07-.41.1-.6a32.40627,32.40627,0,0,0,.24-6.94,9.00643,9.00643,0,0,1,.44-4.51,4.0881,4.0881,0,0,1,.25-.46c1.36-2.24,4.63-3.71,9.7-4.37A13.25912,13.25912,0,0,0,42.11,26.33C43.44,25.36,44.32,24.7,46.08,25.14c1.81.49,3.8,1.67,3.76,2.56-.02.56995-1.46.87994-2.86,1.18-2.41.53-5.43,1.18-6.43,3.79a4.86243,4.86243,0,0,0,.46,4.37,2.87792,2.87792,0,0,0,2.07,1.45,2.71877,2.71877,0,0,0,1.97-.91,3.988,3.988,0,0,1,2.26-1.14,2.60782,2.60782,0,0,1,2.55,1.66C50.09,39.09,49.23,40.89,47.79,42.4Z" fill="#5d4038"/><path d="M25.19,35.62909c1.36-2.24,4.63-3.71,9.7-4.37A13.25912,13.25912,0,0,0,42.11,28.329c1.33-.97,2.21-1.62994,3.97-1.18994A9.18543,9.18543,0,0,1,48.853,28.41431c.57581-.19128.97662-.41705.98706-.71429.04-.89-1.95-2.07-3.76-2.56-1.76-.44-2.64.22-3.97,1.18994A13.25912,13.25912,0,0,1,34.89,29.26c-5.07.66-8.34,2.13-9.7,4.37a4.0881,4.0881,0,0,0-.25.46,7.8776,7.8776,0,0,0-.47437,3.899,5.52159,5.52159,0,0,1,.47437-1.9A4.0881,4.0881,0,0,1,25.19,35.62909Z" fill="#664a44"/><path d="M34.96,51.27c-1.18,4.14-4.79,4.72-7.98,5.23-2.44.38-4.76.76-6.21,2.5h-2.4c1.81-3.44,5.24-3.99,8.29-4.48,3.44-.55,5.59-1.03,6.38-3.79a.99726.99726,0,0,1,1.92.54Z" fill="#49322e"/><path d="M34.45,43.89a.90276.90276,0,0,1-.21.08c-1.7.43-1.9,1.14-2.3,2.57a8.57118,8.57118,0,0,1-2.23,4.17,1.01409,1.01409,0,0,1-1.42,0,1.008,1.008,0,0,1,0-1.42A6.57636,6.57636,0,0,0,30.01,46c.4-1.44.85-3.06,3.27-3.84A16.02305,16.02305,0,0,0,34.45,43.89Z" fill="#49322e"/><path d="M36.001,35a1,1,0,0,1-.61914-1.78613C36.46875,32.3584,38,30.48535,38,29a1,1,0,0,1,2,0c0,2.47168-2.21191,4.86523-3.38184,5.78613A.99787.99787,0,0,1,36.001,35Z" fill="#49322e"/><path d="M31.25,37A10.94,10.94,0,0,0,31,39a1,1,0,0,1-2,0,11.81884,11.81884,0,0,1,.29-2.37c.35-1.86.57-2.99-1.89-4.83a.79918.79918,0,0,1-.24005-.28A11.38266,11.38266,0,0,1,28.99,30.51C32.02,32.97,31.62,35.11,31.25,37Z" fill="#49322e"/><path d="M49.85742,38.10156A2.599,2.599,0,0,0,47.311,36.44037a3.32238,3.32238,0,0,0-.60339.13464,1.63338,1.63338,0,0,1,.256.52655c.22772.98438-.63147,2.78912-2.07031,4.29657a7.27478,7.27478,0,0,1-3.52051,2.21558,3.41562,3.41562,0,0,0,1.82861,1.04041c1.29395.21533,3.05371-.64606,4.58569-2.256C49.226,40.89069,50.08521,39.08594,49.85742,38.10156Z" fill="#49322e"/><path d="M18.99868,30.5c-2.05867,0-4.96005-.05-6.8587-.95a10.373,10.373,0,0,1-4.05334-3.81c-.69336-1.04-1.44-1.99-2.0907-2.83a18.99659,18.99659,0,0,1-2.144-3.12c-.29863-.61-1.70665-3.75-.08535-5.46a3.53877,3.53877,0,0,1,3.64807-.87,5.53922,5.53922,0,0,1,2.912,2.71,5.285,5.285,0,0,1,.064,3.63,3.38443,3.38443,0,0,0-.05332,2.38,9.6667,9.6667,0,0,0,8.50135,5.31c0,.16-.01061.33-.01061.51A15.21835,15.21835,0,0,0,18.99868,30.5Z" fill="#5d4038"/><path d="M13.1413,28.05A10.37316,10.37316,0,0,1,9.088,24.24c-.69336-1.04-1.44006-1.99-2.0907-2.83a18.99981,18.99981,0,0,1-2.144-3.12,7.04223,7.04223,0,0,1-.726-4.28278,2.99593,2.99593,0,0,0-.36066.32275c-1.62128,1.71-.21326,4.85.08539,5.46a18.999,18.999,0,0,0,2.144,3.12c.6507.84,1.39734,1.79,2.09076,2.83A10.373,10.373,0,0,0,12.14,29.55c1.89868.9,4.8.95,6.8587.95-.06854-.4566-.12091-.95367-.1488-1.511A14.958,14.958,0,0,1,13.1413,28.05Z" fill="#49322e"/><path d="M26.8287,31.41a6.72132,6.72132,0,0,0-2.07517,2.38c-.75949,1.51-.6739,3-.567,4.88A27.55128,27.55128,0,0,1,23.641,46.9a3.1967,3.1967,0,0,1-.08553.34c-3.33737-1.31-4.52476-3.92-4.21451-5.13a9.66421,9.66421,0,0,1,.48137-1.43,7.41943,7.41943,0,0,0,.599-3.71,34.1683,34.1683,0,0,0-.64184-5.06A17.1697,17.1697,0,0,1,19.3517,28a11.52843,11.52843,0,0,1,.65248-3.99,8.09936,8.09936,0,0,0,.41719-4.07,19.8564,19.8564,0,0,0-.94132-3.87c-.47066-1.45-.68461-2.17-.22465-2.78a4.34412,4.34412,0,0,1,3.316-1.16A4.29049,4.29049,0,0,1,25.866,13.29c.60972.8.19253,1.84-.60972,3.61a13.6854,13.6854,0,0,0-1.62586,7.14C23.83363,26.32,25.27766,29.13,26.8287,31.41Z" fill="#5d4038"/><path d="M25,30.17a6.72183,6.72183,0,0,0-2.0752,2.38c-.75946,1.51-.67389,3-.567,4.88a27.55055,27.55055,0,0,1-.54553,8.23,3.203,3.203,0,0,1-.08551.34c-.26276-.10315.75427.81824,1.82867,1.24a3.18826,3.18826,0,0,0,.08557-.34,27.55261,27.55261,0,0,0,.54553-8.23c-.10693-1.88-.19257-3.37.567-4.88a6.721,6.721,0,0,1,2.07513-2.38C26,30,26,29,25,30.17Z" fill="#49322e"/></g><g data-name="Layer 1" id="Layer_1"><path d="M59,31.00036a4.94753,4.94753,0,0,0-4.98865,4.75256,14.61817,14.61817,0,0,0-2.11389,1.1322c-.33685.20618-.6795.41388-1.02466.60577A3.97289,3.97289,0,0,0,46.877,35.00817a5.27215,5.27215,0,0,0-2.97559,1.46777c-.44434.38379-.64453.5332-.8418.52637a1.57707,1.57707,0,0,1-.83008-.73926,3.26576,3.26576,0,0,1-.29395-2.91016c.67188-1.78125,3.03906-2.2998,5.12891-2.75781,1.55957-.34186,3.03784-.67871,3.6416-1.63226,3.79645-.17236,8.95508-1.88171,9.28809-4.85114a1.00035,1.00035,0,1,0-1.98828-.22266c-.13879,1.24371-3.64185,2.88348-7.24786,3.07184a4.48906,4.48906,0,0,0-1.73047-1.722,19.15626,19.15626,0,0,0,2.69238-6.13147C56.50012,18.71483,60,14.12969,60,10.00036a1,1,0,1,0-2,0,7.56564,7.56564,0,0,1-5.89111,7.04224q.10547-.70752.19482-1.40161c.4707-3.63477.958-7.39258,6.46484-14A1.00054,1.00054,0,0,0,57.23145.35973a39.45,39.45,0,0,0-3.9115,5.492A29.78063,29.78063,0,0,1,53,1.00036a1,1,0,0,0-2,0c0,2.2038.14429,5.9173,1.043,7.37445a24.00161,24.00161,0,0,0-1.72266,7.00836,18.36625,18.36625,0,0,1-3.09955,8.97723c-.528-.20172-.91852-.31335-.97858-.32977a5.54343,5.54343,0,0,0-1.57471-.17786l1.27295-3.5116a1.00028,1.00028,0,0,0-1.88086-.68164l-1.8125,5-.00043.00269c-.37708.23694-.73914.50354-1.105.77661A15.64871,15.64871,0,0,1,39.22876,26.71l1.50134-9.0083A18.68785,18.68785,0,0,0,47.98047,6.19664a.99992.99992,0,0,0-1.96094-.39258,17.11972,17.11972,0,0,1-4.78961,8.89868l.75641-4.53833a.99988.99988,0,0,0-1.97266-.32813L37.05444,27.59166a14.1147,14.1147,0,0,1-2.18433.41748c-.58551.07648-1.13019.17151-1.66931.26917a11.473,11.473,0,0,0,.08044-2.4635,9.59956,9.59956,0,0,1,1.57617-6.2998,1,1,0,1,0-1.71484-1.0293,11.56688,11.56688,0,0,0-1.85937,7.418,7.27435,7.27435,0,0,1-.23145,2.78027c-.00751.02246-.00256.045-.00836.06763a15.75365,15.75365,0,0,0-3.46869,1.34973,11.92087,11.92087,0,0,1-2.53864-5.87354,45.5607,45.5607,0,0,1,5.70612-7.48328c2.76855-3.06543,4.95508-5.4873,6.24121-12.56543a.9995.9995,0,0,0-1.9668-.35742A27.09439,27.09439,0,0,1,33.58771,9.084,6.70254,6.70254,0,0,0,31.707,6.29332.99989.99989,0,0,0,30.293,7.70739c.9541.9541,1.707,1.707,1.707,4.293,0,.02258.01135.04144.01282.06366a31.26435,31.26435,0,0,1-2.755,3.33966,54.065,54.065,0,0,0-3.80347,4.59161,24.822,24.822,0,0,1,.94507-2.50568c.76953-1.82031,1.49707-3.53906.417-5.06641a3.47287,3.47287,0,0,0-.80829-.7981,7.73579,7.73579,0,0,1,1.30829-4.42456A10.5547,10.5547,0,0,0,29,1.00036a1,1,0,0,0-2,0,8.877,8.877,0,0,1-.74939,3.96307c-.163-.33734-.31989-.63586-.46057-.89667A5.18769,5.18769,0,0,1,25,1.00036a1,1,0,0,0-2,0A7.09727,7.09727,0,0,0,24.0293,5.016,13.34359,13.34359,0,0,1,25.016,7.21892a9.0752,9.0752,0,0,0-.9743,3.575,7.28688,7.28688,0,0,0-1.51825-.15973h-.01758a7.34679,7.34679,0,0,0-1.96655.27881,5.81751,5.81751,0,0,1-.094-3.40479,12.06594,12.06594,0,0,0-.5166-6.87891,1.00011,1.00011,0,0,0-1.85742.74219,10.08929,10.08929,0,0,1,.39648,5.83789,7.50939,7.50939,0,0,0,.28748,4.61139,3.2222,3.2222,0,0,0-.57458.60541c-.86621,1.2373-.46387,2.55664.00293,4.084a19.22174,19.22174,0,0,1,.82324,3.60547,7.08505,7.08505,0,0,1-.334,3.46484,14.01638,14.01638,0,0,0-.53992,2.37439,7.6476,7.6476,0,0,1-6.20325-4.32361,2.39522,2.39522,0,0,1,.1123-1.46484,7.09166,7.09166,0,0,0-.09863-4.498c-.02142-.06091-.05383-.11841-.07812-.17847.00861-.0152.02136-.02643.0293-.04224C12.90234,13.432,15,9.23668,15,1.00036a1,1,0,0,0-2,0c0,6.644-1.43042,10.46-2.43219,12.60181a7.63738,7.63738,0,0,0-2.1557-1.51294,3.60358,3.60358,0,0,0-.41235-.1413,26.99477,26.99477,0,0,0-.27-4.26642C9.997,5.39678,10,3.06194,10,1.00036a1,1,0,1,0-2,0,7.34872,7.34872,0,0,1-.85693,4.22241,11.26206,11.26206,0,0,0-1.311-2.7771A1,1,0,0,0,4.168,3.555c1.78436,2.67657,1.83014,6.382,1.8313,8.28271A4.83535,4.83535,0,0,0,3.634,12.97161,37.388,37.388,0,0,1,2,1.00036a1,1,0,0,0-2,0C0,5.00817,0,7.65563,2.20606,15.29821a.94738.94738,0,0,0,.05383.11249,9.04567,9.04567,0,0,0,.83093,5.00665,21.04817,21.04817,0,0,0,2.167,3.375c.627.85938,1.27539,1.748,1.89453,2.73828a11.49145,11.49145,0,0,0,4.40039,4.36426c2.006,1.003,4.77771,1.09521,6.83319,1.10388l.032.17737a33.6254,33.6254,0,0,1,.583,4.876,6.42553,6.42553,0,0,1-.4707,3.11133,12.90877,12.90877,0,0,0-.50391,1.6084c-.50836,2.16876,1.20477,5.20154,4.56317,6.74274A2.495,2.495,0,0,1,21.542,50.11071a3.25964,3.25964,0,0,1-2.208-.0918,5.21365,5.21365,0,0,0-3.78809.09082,3.95454,3.95454,0,0,0-1.82812,2.22656,11.8839,11.8839,0,0,1-.58105,1.15918,11.79245,11.79245,0,0,1-5.54883,4.59375A1,1,0,0,0,8,60.00036H45a1,1,0,0,0,.19629-1.98047c-5.22363-1.04492-7.99121-3.1377-8.21777-4.22363-.06445-.3125.0127-.49219.2666-1.01465a6.48027,6.48027,0,0,0,.75391-2.72949c.14844-2.90039-1.41992-4.99414-2.68066-6.67676-1.03906-1.38574-1.66113-2.27344-1.38088-3.02637.31057-.834,1.30666-1.54492,1.74611-1.40039,1.06738.35645,1.84082,1.62012,2.65918,2.958,1.05762,1.72852,2.25586,3.6875,4.48438,4.0791,1.78027.30664,3.9375-.67871,5.78809-2.64648a9.90511,9.90511,0,0,0,2.21387-3.59851,16.94449,16.94449,0,0,0,2.1123-1.14954c1.87793-1.14941,3.01563-1.75391,4.50391-.75879a1,1,0,0,0,1.10938-1.66406,4.585,4.585,0,0,0-2.45776-.83A2.8972,2.8972,0,0,1,59,33.00036a1,1,0,0,0,0-2ZM12.44727,29.10582a9.56722,9.56722,0,0,1-3.59961-3.63574c-.65625-1.0498-1.35645-2.00977-1.97363-2.85645a19.5051,19.5051,0,0,1-1.96484-3.0293c-.15723-.34473-1.5-3.41016-.16113-4.9209a2.68089,2.68089,0,0,1,2.83984-.752,4.92122,4.92122,0,0,1,2.46875,2.41992,5.14419,5.14419,0,0,1,.04395,3.35254,4.11148,4.11148,0,0,0-.03027,2.68555A9.57019,9.57019,0,0,0,18.001,27.95391L18,27.99352a18.67333,18.67333,0,0,0,.08777,2.00269A14.04535,14.04535,0,0,1,12.44727,29.10582Zm7.52637,13.123a11.04524,11.04524,0,0,1,.43359-1.375,8.34142,8.34142,0,0,0,.5918-3.90527,35.39534,35.39534,0,0,0-.61328-5.13086A17.80069,17.80069,0,0,1,20,28.00719a11.77091,11.77091,0,0,1,.58789-3.85059,9.01523,9.01523,0,0,0,.40527-4.27148,21.12487,21.12487,0,0,0-.89648-3.959c-.4248-1.38867-.55859-1.95117-.27734-2.35254a3.51631,3.51631,0,0,1,2.69043-.93945h.0127a3.41155,3.41155,0,0,1,2.66113.94336c.417.58984.05273,1.52734-.627,3.13281a14.85766,14.85766,0,0,0-1.55371,7.37207A13.70912,13.70912,0,0,0,25.928,31.23674a7.0019,7.0019,0,0,0-1.83429,2.34174,10.06093,10.06093,0,0,0-.57422,5.11328,29.467,29.467,0,0,1-.44983,7.833C20.66712,45.27373,19.74921,43.18395,19.97363,42.22887Zm27.18457-.25977c-1.34572,1.43164-2.91309,2.24121-3.98535,2.0459-1.33887-.23437-2.20605-1.65234-3.124-3.15234-.96973-1.585-1.97266-3.22461-3.73242-3.81152-1.81152-.60059-3.69727,1.1084-4.25393,2.60059a3.03617,3.03617,0,0,0-.12895,1.64685c-2.101.81592-2.53906,2.33716-2.91986,3.70178a6.6389,6.6389,0,0,1-1.7207,3.293A.99989.99989,0,1,0,28.707,49.70739a8.52877,8.52877,0,0,0,2.2334-4.16992c.35089-1.25775.551-1.96216,1.76514-2.40381.30573.48853.65765.96783,1.01221,1.44092,1.17773,1.57227,2.39551,3.19727,2.2832,5.375a4.52867,4.52867,0,0,1-.55469,1.958,3.29435,3.29435,0,0,0-.42578,2.29688c.2832,1.3584,1.68262,2.69727,3.8252,3.7959H19.76654c1.46259-1.74213,3.78046-2.11469,6.21-2.50391,3.18945-.50977,6.80371-1.08789,7.98535-5.22168a1.00029,1.00029,0,1,0-1.92383-.54883c-.791,2.76855-2.93848,3.24609-6.37793,3.7959-3.04834.488-6.47894,1.04205-8.28589,4.47852H11.68748a11.90958,11.90958,0,0,0,3.1758-3.49512,13.82265,13.82265,0,0,0,.67578-1.3418c.33887-.74609.49414-1.05762.915-1.27148a3.45882,3.45882,0,0,1,2.40234.06934A4.90666,4.90666,0,0,0,22.457,51.89c1.46875-.75586,2.03711-2.292,2.52344-4.69141a31.05217,31.05217,0,0,0,.53613-8.61133c-.09473-1.80078-.15723-2.99023.38965-4.16406a5.11755,5.11755,0,0,1,1.47333-1.7876c1.39679,1.38452,1.204,2.42926.90558,3.99365A12.31906,12.31906,0,0,0,28,39.00036a1,1,0,0,0,2,0,10.64833,10.64833,0,0,1,.249-1.99609c.30914-1.61938.64838-3.41724-1.14337-5.44006a20.55821,20.55821,0,0,1,6.00958-1.57068c.47064-.05438.91052-.12469,1.3266-.20618a8.76658,8.76658,0,0,1-2.06,2.42688,1.00007,1.00007,0,0,0,1.23633,1.57227A9.68671,9.68671,0,0,0,38.853,29.08788a14.35983,14.35983,0,0,0,3.48584-2.04651c1.24707-.93066,1.9375-1.4375,3.39551-1.07715,1.83008.50391,3.28613,1.56445,3.29,1.9209a7.20591,7.20591,0,0,1-2.38867.75586c-2.32812.51074-5.51758,1.209-6.57129,4.00684a5.25909,5.25909,0,0,0,.4873,4.7041,3.28874,3.28874,0,0,0,2.38965,1.64648,3.16793,3.16793,0,0,0,2.2666-1.00781,3.36532,3.36532,0,0,1,1.915-.998,1.99276,1.99276,0,0,1,1.9043,1.24121C49.19141,38.91832,48.53711,40.50231,47.1582,41.96911Z"/></g></svg>